<svg xmlns="http://www.w3.org/2000/svg" viewBox="0 0 3000 1000" role="img" aria-label="Destack banner, 3000 by 1000"><defs><radialGradient id="b3light" cx="0.5" cy="0" r="0.9"><stop offset="0" stop-color="#1c3a4c" stop-opacity="0.9"/><stop offset="1" stop-color="#0b1d29" stop-opacity="0"/></radialGradient></defs><rect width="3000" height="1000" fill="#0b1d29"/><rect width="3000" height="1000" fill="url(#b3light)"/><circle cx="305.1" cy="853.6" r="1.60" fill="#f1eadb" opacity="0.50"/><circle cx="123.9" cy="1.0" r="1.60" fill="#f1eadb" opacity="0.36"/><circle cx="2190.9" cy="252.2" r="1.20" fill="#f1eadb" opacity="0.37"/><circle cx="1533.7" cy="222.0" r="2.20" fill="#f1eadb" opacity="0.29"/><circle cx="1107.3" cy="687.4" r="1.60" fill="#f1eadb" opacity="0.40"/><circle cx="2081.5" cy="192.4" r="1.60" fill="#f1eadb" opacity="0.27"/><circle cx="1695.7" cy="511.6" r="2.20" fill="#f1eadb" opacity="0.37"/><circle cx="2679.8" cy="844.5" r="1.60" fill="#f1eadb" opacity="0.50"/><circle cx="1119.2" cy="19.1" r="2.20" fill="#f1eadb" opacity="0.32"/><circle cx="1734.3" cy="359.8" r="2.20" fill="#f1eadb" opacity="0.25"/><circle cx="1943.4" cy="447.8" r="1.60" fill="#f1eadb" opacity="0.42"/><circle cx="2417.6" cy="25.4" r="1.20" fill="#f1eadb" opacity="0.49"/><circle cx="85.9" cy="541.1" r="1.60" fill="#f1eadb" opacity="0.23"/><circle cx="482.0" cy="399.2" r="2.20" fill="#f1eadb" opacity="0.17"/><circle cx="2147.6" cy="260.6" r="2.20" fill="#f1eadb" opacity="0.35"/><circle cx="1024.3" cy="85.5" r="1.60" fill="#f1eadb" opacity="0.35"/><circle cx="2504.3" cy="217.9" r="1.60" fill="#f1eadb" opacity="0.49"/><circle cx="1958.0" cy="89.8" r="1.20" fill="#f1eadb" opacity="0.23"/><circle cx="2862.6" cy="266.3" r="1.20" fill="#f1eadb" opacity="0.16"/><circle cx="2031.6" cy="536.3" r="1.20" fill="#f1eadb" opacity="0.26"/><circle cx="1860.5" cy="823.0" r="1.60" fill="#f1eadb" opacity="0.27"/><circle cx="262.2" cy="190.3" r="2.20" fill="#f1eadb" opacity="0.41"/><circle cx="483.8" cy="996.6" r="1.20" fill="#f1eadb" opacity="0.46"/><circle cx="1505.6" cy="350.8" r="1.20" fill="#f1eadb" opacity="0.46"/><circle cx="2349.8" cy="66.7" r="1.60" fill="#f1eadb" opacity="0.27"/><circle cx="2674.8" cy="872.1" r="1.20" fill="#f1eadb" opacity="0.17"/><circle cx="1406.1" cy="920.4" r="1.20" fill="#f1eadb" opacity="0.41"/><circle cx="412.1" cy="724.2" r="1.20" fill="#f1eadb" opacity="0.37"/><circle cx="474.4" cy="504.0" r="1.60" fill="#f1eadb" opacity="0.42"/><circle cx="493.7" cy="742.1" r="2.20" fill="#f1eadb" opacity="0.19"/><circle cx="2579.9" cy="813.2" r="2.20" fill="#f1eadb" opacity="0.33"/><circle cx="2595.5" cy="505.0" r="2.20" fill="#f1eadb" opacity="0.44"/><circle cx="2319.3" cy="878.2" r="1.60" fill="#f1eadb" opacity="0.53"/><circle cx="2530.0" cy="326.7" r="1.20" fill="#f1eadb" opacity="0.15"/><circle cx="1995.1" cy="807.1" r="2.20" fill="#f1eadb" opacity="0.37"/><circle cx="2661.8" cy="659.2" r="1.20" fill="#f1eadb" opacity="0.42"/><circle cx="2537.1" cy="201.2" r="1.20" fill="#f1eadb" opacity="0.35"/><circle cx="323.0" cy="992.0" r="1.60" fill="#f1eadb" opacity="0.54"/><circle cx="2374.5" cy="752.2" r="2.20" fill="#f1eadb" opacity="0.31"/><circle cx="2490.0" cy="410.6" r="1.20" fill="#f1eadb" opacity="0.16"/><circle cx="2053.4" cy="877.1" r="1.20" fill="#f1eadb" opacity="0.40"/><circle cx="1230.1" cy="549.5" r="2.20" fill="#f1eadb" opacity="0.23"/><circle cx="1282.5" cy="20.1" r="1.20" fill="#f1eadb" opacity="0.54"/><circle cx="1211.0" cy="315.5" r="2.20" fill="#f1eadb" opacity="0.18"/><circle cx="2111.1" cy="555.9" r="1.20" fill="#f1eadb" opacity="0.30"/><circle cx="1227.7" cy="584.3" r="1.60" fill="#f1eadb" opacity="0.44"/><circle cx="351.6" cy="199.9" r="2.20" fill="#f1eadb" opacity="0.41"/><circle cx="2141.6" cy="307.3" r="1.20" fill="#f1eadb" opacity="0.40"/><circle cx="817.9" cy="287.3" r="2.20" fill="#f1eadb" opacity="0.20"/><circle cx="838.6" cy="376.7" r="1.20" fill="#f1eadb" opacity="0.39"/><circle cx="2761.1" cy="213.7" r="2.20" fill="#f1eadb" opacity="0.35"/><circle cx="2527.4" cy="61.8" r="1.20" fill="#f1eadb" opacity="0.53"/><circle cx="1410.5" cy="318.4" r="1.60" fill="#f1eadb" opacity="0.22"/><circle cx="2639.2" cy="514.3" r="2.20" fill="#f1eadb" opacity="0.45"/><circle cx="510.7" cy="400.2" r="1.60" fill="#f1eadb" opacity="0.52"/><circle cx="1032.5" cy="470.2" r="2.20" fill="#f1eadb" opacity="0.15"/><circle cx="391.4" cy="858.0" r="1.20" fill="#f1eadb" opacity="0.31"/><circle cx="830.1" cy="268.7" r="2.20" fill="#f1eadb" opacity="0.23"/><circle cx="1834.4" cy="51.8" r="1.60" fill="#f1eadb" opacity="0.35"/><circle cx="2163.0" cy="228.8" r="2.20" fill="#f1eadb" opacity="0.48"/><circle cx="2483.0" cy="96.8" r="1.60" fill="#f1eadb" opacity="0.17"/><circle cx="962.6" cy="799.3" r="1.60" fill="#f1eadb" opacity="0.22"/><circle cx="2629.1" cy="302.7" r="2.20" fill="#f1eadb" opacity="0.49"/><circle cx="2548.3" cy="693.0" r="1.60" fill="#f1eadb" opacity="0.40"/><circle cx="2917.8" cy="896.7" r="2.20" fill="#f1eadb" opacity="0.33"/><circle cx="1799.0" cy="949.1" r="1.60" fill="#f1eadb" opacity="0.27"/><circle cx="1647.7" cy="291.3" r="1.20" fill="#f1eadb" opacity="0.19"/><circle cx="1314.9" cy="588.0" r="1.60" fill="#f1eadb" opacity="0.23"/><circle cx="1648.1" cy="95.1" r="1.20" fill="#f1eadb" opacity="0.23"/><circle cx="718.7" cy="747.2" r="1.60" fill="#f1eadb" opacity="0.40"/><circle cx="2980.7" cy="323.9" r="2.20" fill="#f1eadb" opacity="0.39"/><circle cx="2940.2" cy="414.3" r="1.60" fill="#f1eadb" opacity="0.33"/><circle cx="23.3" cy="286.4" r="1.20" fill="#f1eadb" opacity="0.31"/><circle cx="133.9" cy="648.4" r="1.20" fill="#f1eadb" opacity="0.50"/><circle cx="1480.4" cy="686.4" r="1.20" fill="#f1eadb" opacity="0.17"/><circle cx="1657.7" cy="272.6" r="1.20" fill="#f1eadb" opacity="0.36"/><circle cx="1588.8" cy="335.0" r="1.60" fill="#f1eadb" opacity="0.46"/><circle cx="2530.6" cy="54.7" r="1.20" fill="#f1eadb" opacity="0.40"/><circle cx="924.8" cy="338.9" r="2.20" fill="#f1eadb" opacity="0.24"/><circle cx="42.7" cy="505.8" r="1.20" fill="#f1eadb" opacity="0.50"/><circle cx="2047.3" cy="952.9" r="1.20" fill="#f1eadb" opacity="0.43"/><circle cx="1195.4" cy="634.7" r="1.20" fill="#f1eadb" opacity="0.43"/><circle cx="551.6" cy="219.3" r="1.20" fill="#f1eadb" opacity="0.49"/><defs><linearGradient id="b3streak" x1="2013.6" y1="260.6" x2="2184.6" y2="192.2" gradientUnits="userSpaceOnUse"><stop offset="0" stop-color="#f1eadb" stop-opacity="0"/><stop offset="1" stop-color="#f1eadb" stop-opacity="0.95"/></linearGradient></defs><path d="M2013.6 260.6L2184.6 192.2" stroke="url(#b3streak)" stroke-width="6.8" stroke-linecap="round"/><circle cx="2184.6" cy="192.2" r="5.1" fill="#f1eadb"/><defs>
<radialGradient id="b3halo"><stop offset="0.55" stop-color="#ff792e" stop-opacity="0.35"/><stop offset="1" stop-color="#ff792e" stop-opacity="0"/></radialGradient>
<clipPath id="b3front"><path d="M-60 500.0H5090.4V580.0H-60Z" transform="rotate(-22 2515.2 500.0)"/></clipPath>
<clipPath id="b3globe"><circle cx="2515.2" cy="500.0" r="228.0"/></clipPath>
<clipPath id="b3lit"><circle cx="2378.40" cy="363.20" r="228.00"/></clipPath>
<mask id="b3cut" maskUnits="userSpaceOnUse" x="-60" y="-60" width="5150.4" height="1120.0"><rect x="-60" y="-60" width="5150.4" height="1120.0" fill="#fff"/>
<g clip-path="url(#b3front)"><ellipse cx="2515.2" cy="500.0" rx="332.9" ry="91.2" transform="rotate(-22 2515.2 500.0)" fill="none" stroke="#000" stroke-width="125.4"/></g></mask>
</defs>
<ellipse cx="2515.2" cy="500.0" rx="332.9" ry="91.2" transform="rotate(-22 2515.2 500.0)" fill="none" stroke="#ff792e" stroke-width="57.0"/>
<g mask="url(#b3cut)"><circle cx="2515.2" cy="500.0" r="228.0" fill="#ff792e"/>
<g clip-path="url(#b3globe)"><circle cx="2610.96" cy="595.76" r="232.56" fill="#c64a17"/></g></g>
<g clip-path="url(#b3front)"><ellipse cx="2515.2" cy="500.0" rx="332.9" ry="91.2" transform="rotate(-22 2515.2 500.0)" fill="none" stroke="#ff792e" stroke-width="57.0"/></g><text x="120.0" y="424.7" text-anchor="start" font-family="Limelight, Futura, sans-serif" font-size="180.0" letter-spacing="18.0" fill="#f1eadb">DE<tspan fill="#ff792e">·</tspan>STACK</text><text x="128.1" y="537.0" text-anchor="start" font-family="IBM Plex Sans, sans-serif" font-size="46.8" fill="#f1eadb"><tspan fill="#ff792e" font-weight="600">de·stack</tspan><tspan font-family="IBM Plex Mono, monospace" fill="#9fb3bb" dx="28.1">/diːˈstak/</tspan><tspan font-style="italic" fill="#9fb3bb" dx="28.1">verb</tspan></text><text x="128.1" y="616.6" text-anchor="start" font-family="IBM Plex Sans, sans-serif" font-size="53.8" fill="#f1eadb" opacity="0.85">to unify all your apps and agents with one open stack</text></svg>